<svg fill="none" height="22" viewBox="0 0 17 22" width="17" xmlns="http://www.w3.org/2000/svg"><path d="m15.8346 11.5547-14.13197 9.4213c-.1004.0668-.21703.1051-.33748.1109s-.24021-.0213-.34653-.0782c-.106307-.0569-.195189-.1416-.257176-.245-.061987-.1035-.094756-.2218-.094818-.3424v-18.84262c.000062-.12059.032831-.23891.094818-.34235.061987-.10343.150869-.18812.257176-.245042.10632-.056918.22608-.083935.34653-.078173s.23708.044088.33748.110895l14.13197 9.42129c.0913.0609.1662.1434.218.2402.0518.0967.0788.2048.0788.3145 0 .1098-.027.2178-.0788.3146-.0518.0967-.1267.1792-.218.2401z" fill="#fff"/></svg>